<?xml version="1.0" encoding="UTF-8"?>
<svg id="Layer_1" data-name="Layer 1" xmlns="http://www.w3.org/2000/svg" viewBox="0 0 3964.55 1230.7">
  <defs>
    <style>
      .cls-1 {
        fill: #55001f;
      }
    </style>
  </defs>
  <g>
    <path class="cls-1" d="M1133.99,629.42c0-107.99,72.32-179.34,163.7-179.34,82.58,0,134.87,54.24,134.87,89.91,0,12.71-8.3,21.02-21.02,21.02-36.64,0-37.62-90.89-126.56-90.89-59.13,0-107.5,57.18-107.5,132.91,0,99.19,65.96,173.47,137.32,173.47,31.27,0,59.12-8.79,76.23-21.01v-84.54c0-19.55-33.23-18.56-33.23-26.87v-1.95c0-4.4,4.39-6.84,10.26-6.84l83.56.48c5.86,0,9.77,2.45,9.77,6.36v1.95c0,8.31-28.84,7.32-28.84,26.87v75.75c0,10.26-2.93,15.64-12.7,23.46-25.41,21.02-65.96,36.16-116.78,36.16-89.91,0-169.08-81.12-169.08-176.89Z"/>
    <path class="cls-1" d="M1490.65,795.07v-1.95c0-9.29,17.59-9.29,17.59-26.4v-145.61c0-19.06-17.59-22.97-17.59-30.31v-.97c0-3.43,2.94-4.9,7.33-7.33l37.62-18.57c10.27-4.89,15.15,0,15.15,6.84v195.94c0,17.11,19.55,17.11,19.55,26.4v1.95c0,3.91-4.39,6.35-10.26,6.35h-60.11c-5.86,0-9.29-2.44-9.29-6.35ZM1495.55,490.16c0-18.08,12.7-30.79,32.73-30.79s31.77,12.7,31.77,30.79-12.71,30.29-31.77,30.29c-20.04,0-32.73-12.21-32.73-30.29Z"/>
    <path class="cls-1" d="M1849.79,794.58v1.46c0,3.43-2.44,5.38-7.32,5.38h-41.05c-4.89,0-7.82-3.43-8.31-7.82l-.97-24.43c-16.62,24.43-45.45,37.14-74.27,37.14-59.62,0-112.88-48.37-112.88-122.65s49.35-121.68,114.34-121.68c29.81,0,54.24,12.7,70.86,31.77v-106.54c0-20.51-20.53-20.03-20.53-28.83v-.98c0-3.91,2.94-6.35,7.33-8.3l39.58-13.2c10.27-3.91,15.15-.98,15.15,7.33v323.97c0,17.59,18.08,19.05,18.08,27.36ZM1790.19,719.81h.48l-.48-24.92v-48.86c0-31.27-31.27-68.41-71.35-68.41s-71.33,36.64-71.83,91.37c-.98,66.95,32.25,120.7,81.12,121.18,27.85,0,62.06-23.46,62.06-70.37Z"/>
    <path class="cls-1" d="M1969.97,795.56v-.98c0-9.28,18.08-9.77,18.08-27.36v-291.73h-66.46c-24.92,0-27.85,52.77-42.01,52.77h-4.4c-4.89,0-7.32-2.92-6.36-9.77l7.82-53.26c.99-6.84,4.4-10.75,12.22-10.75h242.86c7.82,0,11.23,3.91,12.7,10.75l10.76,53.75c1.46,6.36-1.47,9.28-5.86,9.28h-4.9c-14.17,0-20.51-52.77-44.96-52.77h-67.42v291.73c0,17.59,19.05,18.08,19.05,27.36v.98c0,3.91-3.91,5.86-10.27,5.86h-61.08c-5.86,0-9.77-1.95-9.77-5.86Z"/>
    <path class="cls-1" d="M2304.66,599.61c0,12.7-5.86,22.96-19.55,22.96-25.41,0-13.19-34.21-43.49-34.21-26.87,0-41.53,30.79-41.53,67.43v111.41c0,17.1,20.52,17.59,20.52,26.39v1.95c0,3.91-3.42,5.86-9.77,5.86h-60.59c-6.36,0-9.77-1.95-9.77-5.86v-1.95c0-8.8,18.08-9.29,18.08-26.39v-148.55c0-18.57-19.55-19.05-19.55-28.34v-.98c0-3.42,2.92-6.36,7.32-8.8l37.14-16.61c9.28-4.4,12.7-.49,12.7,6.84v39.09c10.75-31.27,33.23-47.89,63.52-47.89s44.96,17.1,44.96,37.63Z"/>
    <path class="cls-1" d="M2549.45,794.09c0,7.33-13.19,10.27-31.27,10.27-21.99,0-33.72-5.37-35.68-32.25-11.23,20.52-34.69,34.21-70.37,34.21-53.74,0-90.88-26.87-90.88-73.78-.49-46.91,38.6-72.32,89.42-72.32,25.9,0,46.91,7.32,60.1,19.55l-.97-13.2c-5.38-57.66-21.02-88.93-60.11-88.93-50.82,0-43,55.71-67.43,55.71-11.73,0-19.05-6.84-19.05-18.08,0-25.9,33.23-53.27,86.49-53.27,60.11,0,96.26,38.6,102.62,103.1l9.77,97.25c2.93,30.3,27.36,19.55,27.36,31.76ZM2476.15,736.92l-1.95-21.98c-4.89-22.97-24.93-39.09-53.75-39.09-33.23,0-56.19,20.51-56.19,50.82,0,35.67,23.46,64.01,58.64,64.01,32.73,0,54.24-23.95,53.26-53.75Z"/>
    <path class="cls-1" d="M2819.15,793.6v1.95c0,3.91-3.91,6.35-10.27,6.35h-58.14c-6.36,0-10.27-2.44-10.27-6.35v-1.95c0-9.29,18.58-9.29,17.59-26.88l-4.88-97.73c-2.45-59.61-26.4-87.96-60.11-87.96-36.16,0-61.08,28.84-61.08,67.44v118.74c0,17.1,19.55,17.1,19.55,26.39v1.95c0,3.91-3.91,6.35-10.27,6.35h-61.09c-5.86,0-9.77-2.44-9.77-6.35v-1.95c0-9.29,19.06-9.29,19.06-26.39v-148.06c0-21.02-20.52-20.04-20.52-28.84v-1.47c0-3.42,2.93-5.37,7.82-7.32l36.64-17.59c9.29-4.89,13.68,0,13.68,7.32v35.68c14.18-27.36,42.52-44.96,76.23-44.96,47.9,0,87.96,32.25,92.85,108l5.37,96.26c.98,18.08,17.59,18.08,17.59,27.36Z"/>
    <path class="cls-1" d="M2845.98,750.12c0-11.73,7.82-18.08,19.05-18.08,30.3,0,14.66,59.62,80.14,59.62,31.27,0,55.71-15.15,55.71-43,0-71.84-149.53-23.46-149.53-119.71,0-37.63,38.11-66.95,91.87-66.95,60.59,0,95.28,31.27,95.28,57.66,0,9.77-7.82,17.11-17.59,17.11-27.85,0-15.64-59.62-75.74-59.62-28.34,0-50.33,18.08-50.33,42.52,0,70.37,149.03,22.48,149.03,120.21,0,36.64-38.11,65.96-98.71,65.96-65,0-99.19-32.73-99.19-55.7Z"/>
    <path class="cls-1" d="M3253.47,489.17c0,8.31-6.36,17.11-18.08,17.11-38.1,0-9.77-48.86-53.26-49.35-33.71-.49-40.07,46.42-29.8,96.74v13.2h67.92c3.91,0,6.84,3.43,6.84,6.84v6.36c0,3.42-2.93,6.35-6.84,6.35h-67.92v180.31c0,17.59,21.98,18.08,21.98,27.36v1.47c0,3.43-2.93,5.86-7.33,5.86h-68.89c-4.89,0-7.33-2.44-7.33-5.86v-1.47c0-9.28,18.58-9.77,18.58-27.36v-180.31h-40.56c-4.39,0-7.33-2.93-7.33-6.35v-6.36c0-3.42,2.94-6.84,7.33-6.84h40.56v-42.52c0-47.88,27.85-83.06,79.64-83.06,34.21,0,64.5,21.5,64.5,47.88Z"/>
    <path class="cls-1" d="M3443.04,736.44c-5.86,29.32-38.1,69.87-99.19,69.87s-113.37-47.89-113.37-124.12c0-68.89,50.33-120.21,115.32-120.21,58.64,0,90.89,38.6,90.89,72.32,0,15.64-8.3,23.95-22.97,28.83l-135.35,44.47c11.24,42.02,41.05,67.43,80.62,67.43,36.17,0,59.13-19.05,69.88-42.51,4.39-6.85,15.64-5.38,14.17,3.91ZM3272.99,666.55c0,8.8.49,17.11,1.95,24.93l108.97-39.09c8.3-3.43,11.73-8.81,11.73-17.11,0-21.98-23.46-57.66-57.17-57.66-39.59,0-65.49,39.09-65.49,88.93Z"/>
    <path class="cls-1" d="M3640.43,599.61c0,12.7-5.86,22.96-19.55,22.96-25.41,0-13.19-34.21-43.49-34.21-26.87,0-41.53,30.79-41.53,67.43v111.41c0,17.1,20.52,17.59,20.52,26.39v1.95c0,3.91-3.42,5.86-9.77,5.86h-60.59c-6.36,0-9.77-1.95-9.77-5.86v-1.95c0-8.8,18.08-9.29,18.08-26.39v-148.55c0-18.57-19.55-19.05-19.55-28.34v-.98c0-3.42,2.92-6.36,7.32-8.8l37.14-16.61c9.28-4.4,12.7-.49,12.7,6.84v39.09c10.75-31.27,33.23-47.89,63.52-47.89s44.96,17.1,44.96,37.63Z"/>
  </g>
  <g>
    <path class="cls-1" d="M446.84,649.72l269.87-406.31,275.84,365.33c-31.6-28.82-140.88-115.85-271.18-109.4-153.95,7.63-251.7,127.49-274.53,150.38Z"/>
    <path class="cls-1" d="M406.78,844.12c12.71-170.96,133.9-305.71,309.81-310.08,109.22-3.59,231.48,36.11,292,133.46,45.63,76.65,30.77,179.31-25.27,246.26-55.54,67.11-150.71,87.59-232.24,64.27,0,0-12.2-3.44-12.2-3.44-1.05-37.68-1.73-87.88-2.01-126.07-.12-38.3-.05-76.62.99-115.02,6.76,37.81,12.55,75.69,18.15,113.58,4.77,33.31,11.4,80.82,15.37,113.79,0,0-12.42-14.7-12.42-14.7,67.05,11.19,143.41-8.02,185.21-64.07,39.22-51.03,49.11-131.53,15.86-185.57-75.56-113.87-262.51-140.14-380.84-82.91-90.17,44.43-145.36,135.12-172.4,230.49h0Z"/>
  </g>
</svg>