<svg width="3410" height="902" viewBox="0 0 3410 902" fill="none" xmlns="http://www.w3.org/2000/svg">
<path d="M813.316 448.819C813.316 340.829 885.636 269.479 977.016 269.479C1059.6 269.479 1111.89 323.719 1111.89 359.389C1111.89 372.099 1103.59 380.41 1090.87 380.41C1054.23 380.41 1053.25 289.52 964.306 289.52C905.176 289.52 856.806 346.7 856.806 422.43C856.806 521.62 922.766 595.9 994.126 595.9C1025.4 595.9 1053.25 587.109 1070.36 574.889V490.35C1070.36 470.8 1037.13 471.79 1037.13 463.48V461.53C1037.13 457.13 1041.52 454.689 1047.39 454.689L1130.95 455.17C1136.81 455.17 1140.72 457.62 1140.72 461.53V463.48C1140.72 471.79 1111.88 470.8 1111.88 490.35V566.1C1111.88 576.36 1108.95 581.739 1099.18 589.559C1073.77 610.579 1033.22 625.72 982.396 625.72C892.486 625.72 813.316 544.599 813.316 448.829V448.819Z" fill="white"/>
<path d="M1169.98 614.47V612.52C1169.98 603.23 1187.57 603.23 1187.57 586.12V440.51C1187.57 421.45 1169.98 417.54 1169.98 410.2V409.23C1169.98 405.8 1172.92 404.33 1177.31 401.9L1214.93 383.33C1225.2 378.44 1230.08 383.33 1230.08 390.17V586.11C1230.08 603.22 1249.63 603.22 1249.63 612.51V614.46C1249.63 618.37 1245.24 620.81 1239.37 620.81H1179.26C1173.4 620.81 1169.97 618.37 1169.97 614.46L1169.98 614.47ZM1174.88 309.56C1174.88 291.48 1187.58 278.77 1207.61 278.77C1227.64 278.77 1239.38 291.47 1239.38 309.56C1239.38 327.65 1226.67 339.85 1207.61 339.85C1187.57 339.85 1174.88 327.64 1174.88 309.56Z" fill="white"/>
<path d="M1529.12 613.98V615.44C1529.12 618.87 1526.68 620.82 1521.8 620.82H1480.75C1475.86 620.82 1472.93 617.39 1472.44 613L1471.47 588.57C1454.85 613 1426.02 625.71 1397.2 625.71C1337.58 625.71 1284.32 577.34 1284.32 503.06C1284.32 428.78 1333.67 381.38 1398.66 381.38C1428.47 381.38 1452.9 394.08 1469.52 413.15V306.61C1469.52 286.1 1448.99 286.58 1448.99 277.78V276.8C1448.99 272.89 1451.93 270.45 1456.32 268.5L1495.9 255.3C1506.17 251.39 1511.05 254.32 1511.05 262.63V586.6C1511.05 604.19 1529.13 605.65 1529.13 613.96L1529.12 613.98ZM1469.52 539.21H1470L1469.52 514.29V465.43C1469.52 434.16 1438.25 397.02 1398.17 397.02C1358.09 397.02 1326.84 433.66 1326.34 488.39C1325.36 555.34 1358.59 609.09 1407.46 609.57C1435.31 609.57 1469.52 586.11 1469.52 539.2V539.21Z" fill="white"/>
<path d="M1649.3 614.96V613.98C1649.3 604.7 1667.38 604.21 1667.38 586.62V294.89H1600.92C1576 294.89 1573.07 347.66 1558.91 347.66H1554.51C1549.62 347.66 1547.19 344.74 1548.15 337.89L1555.97 284.63C1556.96 277.79 1560.37 273.88 1568.19 273.88H1811.05C1818.87 273.88 1822.28 277.79 1823.75 284.63L1834.51 338.38C1835.97 344.74 1833.04 347.66 1828.65 347.66H1823.75C1809.58 347.66 1803.24 294.89 1778.79 294.89H1711.37V586.62C1711.37 604.21 1730.42 604.7 1730.42 613.98V614.96C1730.42 618.87 1726.51 620.82 1720.15 620.82H1659.07C1653.21 620.82 1649.3 618.87 1649.3 614.96Z" fill="white"/>
<path d="M1983.99 419.01C1983.99 431.71 1978.13 441.97 1964.44 441.97C1939.03 441.97 1951.25 407.76 1920.95 407.76C1894.08 407.76 1879.42 438.55 1879.42 475.19V586.6C1879.42 603.7 1899.94 604.19 1899.94 612.99V614.94C1899.94 618.85 1896.52 620.8 1890.17 620.8H1829.58C1823.22 620.8 1819.81 618.85 1819.81 614.94V612.99C1819.81 604.19 1837.89 603.7 1837.89 586.6V438.05C1837.89 419.48 1818.34 419 1818.34 409.71V408.73C1818.34 405.31 1821.26 402.37 1825.66 399.93L1862.8 383.32C1872.08 378.92 1875.5 382.83 1875.5 390.16V429.25C1886.25 397.98 1908.73 381.36 1939.02 381.36C1969.31 381.36 1983.98 398.46 1983.98 418.99L1983.99 419.01Z" fill="white"/>
<path d="M2228.78 613.49C2228.78 620.82 2215.59 623.76 2197.51 623.76C2175.52 623.76 2163.79 618.39 2161.83 591.51C2150.6 612.03 2127.14 625.72 2091.46 625.72C2037.72 625.72 2000.58 598.85 2000.58 551.94C2000.09 505.03 2039.18 479.62 2090 479.62C2115.9 479.62 2136.91 486.94 2150.1 499.17L2149.13 485.97C2143.75 428.31 2128.11 397.04 2089.02 397.04C2038.2 397.04 2046.02 452.75 2021.59 452.75C2009.86 452.75 2002.54 445.91 2002.54 434.67C2002.54 408.77 2035.77 381.4 2089.03 381.4C2149.14 381.4 2185.29 420 2191.65 484.5L2201.42 581.75C2204.35 612.05 2228.78 601.3 2228.78 613.51V613.49ZM2155.48 556.32L2153.53 534.34C2148.64 511.37 2128.6 495.25 2099.78 495.25C2066.55 495.25 2043.59 515.76 2043.59 546.07C2043.59 581.74 2067.05 610.08 2102.23 610.08C2134.96 610.08 2156.47 586.13 2155.49 556.33L2155.48 556.32Z" fill="white"/>
<path d="M2498.48 613V614.95C2498.48 618.86 2494.57 621.3 2488.21 621.3H2430.07C2423.71 621.3 2419.8 618.86 2419.8 614.95V613C2419.8 603.71 2438.38 603.71 2437.39 586.12L2432.51 488.39C2430.06 428.78 2406.11 400.43 2372.4 400.43C2336.24 400.43 2311.32 429.27 2311.32 467.87V586.61C2311.32 603.71 2330.87 603.71 2330.87 613V614.95C2330.87 618.86 2326.96 621.3 2320.6 621.3H2259.51C2253.65 621.3 2249.74 618.86 2249.74 614.95V613C2249.74 603.71 2268.8 603.71 2268.8 586.61V438.55C2268.8 417.53 2248.28 418.51 2248.28 409.71V408.24C2248.28 404.82 2251.21 402.87 2256.1 400.92L2292.74 383.33C2302.03 378.44 2306.42 383.33 2306.42 390.65V426.33C2320.6 398.97 2348.94 381.37 2382.65 381.37C2430.55 381.37 2470.61 413.62 2475.5 489.37L2480.87 585.63C2481.85 603.71 2498.46 603.71 2498.46 612.99L2498.48 613Z" fill="white"/>
<path d="M2525.31 569.52C2525.31 557.79 2533.13 551.44 2544.36 551.44C2574.66 551.44 2559.02 611.06 2624.5 611.06C2655.77 611.06 2680.21 595.91 2680.21 568.06C2680.21 496.22 2530.68 544.6 2530.68 448.35C2530.68 410.72 2568.79 381.4 2622.55 381.4C2683.14 381.4 2717.83 412.67 2717.83 439.06C2717.83 448.83 2710.01 456.17 2700.24 456.17C2672.39 456.17 2684.6 396.55 2624.5 396.55C2596.16 396.55 2574.17 414.63 2574.17 439.07C2574.17 509.44 2723.2 461.55 2723.2 559.28C2723.2 595.92 2685.09 625.24 2624.49 625.24C2559.49 625.24 2525.3 592.51 2525.3 569.54L2525.31 569.52Z" fill="white"/>
<path d="M2932.8 308.57C2932.8 316.88 2926.44 325.68 2914.72 325.68C2876.62 325.68 2904.95 276.82 2861.46 276.33C2827.75 275.84 2821.39 322.75 2831.66 373.07V386.27H2899.58C2903.49 386.27 2906.42 389.7 2906.42 393.11V399.47C2906.42 402.89 2903.49 405.82 2899.58 405.82H2831.66V586.13C2831.66 603.72 2853.64 604.21 2853.64 613.49V614.96C2853.64 618.39 2850.71 620.82 2846.31 620.82H2777.42C2772.53 620.82 2770.09 618.38 2770.09 614.96V613.49C2770.09 604.21 2788.67 603.72 2788.67 586.13V405.82H2748.11C2743.72 405.82 2740.78 402.89 2740.78 399.47V393.11C2740.78 389.69 2743.72 386.27 2748.11 386.27H2788.67V343.75C2788.67 295.87 2816.52 260.69 2868.31 260.69C2902.52 260.69 2932.81 282.19 2932.81 308.57H2932.8Z" fill="white"/>
<path d="M3122.37 555.84C3116.51 585.16 3084.27 625.71 3023.18 625.71C2962.09 625.71 2909.81 577.82 2909.81 501.59C2909.81 432.7 2960.14 381.38 3025.13 381.38C3083.77 381.38 3116.02 419.98 3116.02 453.7C3116.02 469.34 3107.72 477.65 3093.05 482.53L2957.7 527C2968.94 569.02 2998.75 594.43 3038.32 594.43C3074.49 594.43 3097.45 575.38 3108.2 551.92C3112.59 545.07 3123.84 546.54 3122.37 555.83V555.84ZM2952.32 485.95C2952.32 494.75 2952.81 503.06 2954.27 510.88L3063.24 471.79C3071.54 468.36 3074.97 462.98 3074.97 454.68C3074.97 432.7 3051.51 397.02 3017.8 397.02C2978.21 397.02 2952.31 436.11 2952.31 485.95H2952.32Z" fill="white"/>
<path d="M3319.76 419.01C3319.76 431.71 3313.9 441.97 3300.21 441.97C3274.8 441.97 3287.02 407.76 3256.72 407.76C3229.85 407.76 3215.19 438.55 3215.19 475.19V586.6C3215.19 603.7 3235.71 604.19 3235.71 612.99V614.94C3235.71 618.85 3232.29 620.8 3225.94 620.8H3165.35C3158.99 620.8 3155.58 618.85 3155.58 614.94V612.99C3155.58 604.19 3173.66 603.7 3173.66 586.6V438.05C3173.66 419.48 3154.11 419 3154.11 409.71V408.73C3154.11 405.31 3157.03 402.37 3161.43 399.93L3198.57 383.32C3207.85 378.92 3211.27 382.83 3211.27 390.16V429.25C3222.02 397.98 3244.5 381.36 3274.79 381.36C3305.08 381.36 3319.75 398.46 3319.75 418.99L3319.76 419.01Z" fill="white"/>
<path d="M126.166 469.121L396.036 62.8105L671.876 428.141C640.276 399.321 530.996 312.291 400.696 318.741C246.746 326.371 148.996 446.231 126.166 469.121Z" fill="white"/>
<path d="M86.1055 663.52C98.8155 492.56 220.005 357.81 395.915 353.44C505.135 349.85 627.396 389.55 687.916 486.9C733.546 563.55 718.686 666.21 662.646 733.16C607.106 800.27 511.935 820.75 430.405 797.43L418.205 793.99C417.155 756.31 416.475 706.11 416.195 667.92C416.075 629.62 416.145 591.3 417.185 552.9C423.945 590.71 429.735 628.59 435.335 666.48C440.105 699.79 446.735 747.3 450.705 780.27L438.285 765.57C505.335 776.76 581.695 757.55 623.495 701.5C662.715 650.47 672.605 569.97 639.355 515.93C563.795 402.06 376.845 375.79 258.515 433.02C168.345 477.45 113.155 568.14 86.1155 663.51L86.1055 663.52Z" fill="white"/>
</svg>
